Coordinates
version=1
nRows=15
nColumns=19
inDegrees=yes

Units are S.I. units (second, meters, Newtons, ...)
If the header above contains a line with 'inDegrees', this indicates whether rotational values are in degrees (yes) or radians (no).

endheader
time	subtalar_angle_l	subtalar_angle_r	pelvis_list	pelvis_rotation	pelvis_tilt	pelvis_tx	pelvis_ty	pelvis_tz	hip_flexion_l	hip_adduction_l	hip_rotation_l	hip_flexion_r	hip_adduction_r	hip_rotation_r	knee_flexion_l	knee_flexion_r	ankle_angle_l	ankle_angle_r
      0.98000000	      8.31410075	     16.74110598	     86.98902023	     -1.90445174	    -10.88350917	     -0.79564630	     -0.96897299	      0.87202255	     33.61426618	     -1.13838744	     -3.38331601	     18.06383277	      8.61945757	     -0.14927414	    -62.46598423	    -19.80340645	     12.88808558	     13.96841810
      0.99000000	      7.98533909	     16.80797471	     87.41514191	     -2.09323582	    -10.91147322	     -0.78453949	     -0.96859699	      0.87570806	     34.21992067	     -1.48237556	     -2.76670016	     16.42709220	      8.12082110	      0.27699580	    -59.89941204	    -18.02700348	     13.08745449	     13.29086897
      1.00000000	      7.77245566	     16.94018441	     87.80519064	     -2.31305756	    -10.87952605	     -0.77346379	     -0.96816900	      0.87915750	     34.63718023	     -1.76405663	     -2.16068029	     14.75415193	      7.64523519	      0.72892338	    -57.06724418	    -16.27882475	     13.19322315	     12.80415632
      1.01000000	      7.38824288	     17.09797969	     88.24362509	     -2.55630117	    -10.84643999	     -0.76244221	     -0.96759062	      0.88234917	     34.92119502	     -2.10131301	     -1.58755749	     13.18219242	      7.06525181	      1.01784863	    -53.96668190	    -14.66291276	     13.28634601	     11.78516983
      1.02000000	      7.24334271	     17.28160499	     88.59059115	     -2.82996884	    -10.77200939	     -0.75146751	     -0.96700760	      0.88518349	     35.06248176	     -2.31093199	     -1.04769672	     11.59839170	      6.58268860	      1.39409575	    -50.67866401	    -13.10591919	     13.28929904	     11.33277720
      1.03000000	      7.03473936	     17.55348606	     88.94304387	     -3.11836024	    -10.73025834	     -0.74056491	     -0.96631050	      0.88767362	     35.12764648	     -2.52997686	     -0.57092892	     10.16664236	      6.04946045	      1.58465141	    -47.18377104	    -11.71435884	     13.20740847	     10.27371038
      1.04000000	      7.04425710	     17.84403575	     89.21204233	     -3.42310985	    -10.69047027	     -0.72971774	     -0.96560023	      0.88975183	     35.10597483	     -2.64334003	     -0.15393635	      8.79375148	      5.59833634	      1.79395116	    -43.54171401	    -10.42690102	     13.08333669	      9.56908164
      1.05000000	      7.18479812	     18.08374146	     89.39804816	     -3.73119709	    -10.65810999	     -0.71891395	     -0.96488071	      0.89139608	     35.00484470	     -2.66211309	      0.18295852	      7.47947749	      5.22885622	      2.01411049	    -39.77249543	     -9.23973906	     12.96726777	      9.14229862
      1.06000000	      7.68811434	     18.47029511	     89.54054091	     -4.06101816	    -10.70046903	     -0.70816526	     -0.96409448	      0.89261808	     34.89150393	     -2.62422513	      0.47821263	      6.34535591	      4.87873841	      2.10040531	    -35.87410856	     -8.21639629	     12.64318394	      8.24597763
      1.07000000	      8.38443558	     18.83165862	     89.58588651	     -4.38915050	    -10.74313163	     -0.69741191	     -0.96331106	      0.89335820	     34.69620183	     -2.48240339	      0.69269590	      5.24050314	      4.63036469	      2.21584961	    -31.90273783	     -7.27497783	     12.33781395	      7.67947099
      1.08000000	      8.84681130	     19.05024213	     89.53388541	     -4.71099039	    -10.74775563	     -0.68660124	     -0.96254074	      0.89358469	     34.37795248	     -2.24455295	      0.80084088	      4.09817873	      4.48563845	      2.39003286	    -27.89636350	     -6.38180244	     12.12164008	      7.44724745
      1.09000000	     10.29869259	     19.45707820	     89.41589794	     -5.04582137	    -10.82350347	     -0.67575349	     -0.96172675	      0.89332514	     34.07740012	     -1.92435822	      0.92620171	      3.09693483	      4.38998025	      2.44731222	    -23.90347340	     -5.62013027	     11.41870742	      6.77303945
      1.10000000	     11.62406399	     19.78197988	     89.20369791	     -5.37628389	    -10.80764822	     -0.66475231	     -0.96092550	      0.89251093	     33.64198698	     -1.50651677	      1.01380495	      1.97988120	      4.39143664	      2.55891936	    -20.02953828	     -4.88525077	     10.89554872	      6.47316377
      1.11000000	     12.54767112	     19.99667656	     88.93455987	     -5.71099958	    -10.65222169	     -0.65355042	     -0.96011861	      0.89114212	     33.05683871	     -1.01995339	      1.14236837	      0.70200236	      4.44215756	      2.68964435	    -16.37016070	     -4.18234186	     10.42200013	      6.33153265
      1.12000000	     14.42713935	     20.29223641	     88.60046985	     -6.01189061	    -10.61403850	     -0.64225461	     -0.95930713	      0.88935734	     32.64359430	     -0.49016540	      1.27323744	     -0.46069496	      4.55929486	      2.83404766	    -13.05062847	     -3.51852920	      9.50904802	      6.09116881
